PathFileType	4	(X/Y/Z)	c:/Users/goper/Files/vsCode/490R/osim_files/C05/C05_ROM.trc
DataRate	CameraRate	NumFrames	NumMarkers	Units                	OrigDataRate	OrigDataStartFrame	OrigNumFrames
250.00	250.00	9	36	mm	250.0	834	3332
                Frame#	Time	LPSIS			LASIS			LTH1			LTH2			LTH3			LTH4			LLFE			LMFE			LSH1			LSH2			LSH3			LSH4			LLMAL			LMMAL			LCAL			LMTP5			LTOE			LMTP1			RPSIS			RASIS			RTH1			RTH2			RTH3			RTH4			RLFE			RMFE			RSH1			RSH2			RSH3			RSH4			RLMAL			RMMAL			RCAL			RMTP1			RTOE			RMTP5		
		X1	Y1	Z1	X2	Y2	Z2	X3	Y3	Z3	X4	Y4	Z4	X5	Y5	Z5	X6	Y6	Z6	X7	Y7	Z7	X8	Y8	Z8	X9	Y9	Z9	X10	Y10	Z10	X11	Y11	Z11	X12	Y12	Z12	X13	Y13	Z13	X14	Y14	Z14	X15	Y15	Z15	X16	Y16	Z16	X17	Y17	Z17	X18	Y18	Z18	X19	Y19	Z19	X20	Y20	Z20	X21	Y21	Z21	X22	Y22	Z22	X23	Y23	Z23	X24	Y24	Z24	X25	Y25	Z25	X26	Y26	Z26	X27	Y27	Z27	X28	Y28	Z28	X29	Y29	Z29	X30	Y30	Z30	X31	Y31	Z31	X32	Y32	Z32	X33	Y33	Z33	X34	Y34	Z34	X35	Y35	Z35	X36	Y36	Z36

834	3.33200	-452.81995	1070.04797	470.23245	-255.21208	1003.42511	438.36453	-368.50467	710.99799	337.82370	-357.92465	648.51410	335.77554	-292.55426	716.44733	343.39737	-291.95383	654.96960	341.36923	-309.12976	546.21960	338.54486	-319.85880	518.56207	453.30063	-402.21246	374.66458	301.53909	-397.64044	330.59323	297.70380	-339.00723	376.72110	287.87503	-344.63449	333.19974	286.59579	-360.94989	96.51066	281.58981	-331.76965	108.01840	365.64520	-416.82104	68.14814	332.45737	-222.30193	43.10873	246.33772	-183.27065	70.63865	303.79016	-194.48209	48.78040	351.78384	-462.31161	1078.28308	577.98474	-288.52194	1021.26373	665.10278	-387.86920	694.53967	709.12079	-370.82040	634.31934	699.56451	-314.33417	704.55103	725.53925	-308.89328	642.76501	714.81842	-297.33389	536.10236	687.77393	-297.88571	519.43634	577.09009	-382.70370	381.13849	698.84271	-379.97385	333.22711	694.21930	-321.83035	375.23795	699.82501	-327.08127	329.32626	694.83105	-366.72583	93.69357	652.25824	-344.37790	111.67570	570.44794	-428.32547	67.47020	599.32361	-212.65901	45.96346	568.90533	-192.45229	68.55402	617.26300	-239.02081	33.77003	680.64490
835	3.33600	-452.21722	1069.73169	470.95325	-254.58264	1003.60107	438.65692	-368.04681	711.00116	338.35791	-357.38297	648.54285	336.22382	-292.04611	716.40369	343.75778	-291.35764	654.96771	341.72345	-308.60645	546.20471	338.86298	-318.98071	518.48517	453.65012	-401.85614	374.77795	301.86780	-397.26962	330.68381	298.01767	-338.61774	376.73737	288.14935	-344.32080	333.23499	286.82953	-360.89993	96.54345	281.67957	-331.68210	107.98592	365.71521	-416.83185	68.19432	332.49692	-222.27414	43.09728	246.34966	-183.20967	70.56347	303.83731	-194.46906	48.68515	351.81192	-461.45099	1078.04395	578.77563	-287.22852	1021.54041	665.46729	-386.67593	694.48865	709.68976	-369.74460	634.27832	700.07935	-313.17715	704.44507	725.93976	-307.77545	642.62482	715.19507	-296.43732	535.95618	687.97461	-297.25381	519.32587	577.34094	-382.08124	381.06451	699.08319	-379.36755	333.16153	694.42755	-321.12628	375.04584	699.99567	-326.52499	329.14465	694.93115	-366.68729	93.68347	652.26367	-344.33371	111.68113	570.45416	-428.28009	67.46420	599.32629	-212.58121	45.92331	568.88837	-192.44247	68.47721	617.24915	-238.98175	33.74033	680.64264
836	3.34000	-451.58044	1069.47339	471.81049	-253.79976	1003.83252	438.94427	-367.49017	711.00452	338.94928	-356.80408	648.55737	336.74774	-291.49411	716.39703	344.11676	-290.78174	654.98834	342.04047	-307.96939	546.21936	339.23517	-318.15421	518.37170	454.01215	-401.43271	374.87280	302.29514	-396.93185	330.77475	298.26251	-338.23236	376.80841	288.39621	-343.66028	333.42023	286.83524	-360.84384	96.58256	281.74490	-331.59985	107.95268	365.78369	-416.75827	68.18410	332.55441	-222.26590	43.05209	246.35611	-183.21851	70.47907	303.87079	-194.44434	48.61343	351.79849	-460.55267	1077.88733	579.54382	-286.12805	1021.72839	665.79822	-385.49973	694.42328	710.20135	-368.76749	634.26746	700.42462	-311.98026	704.31580	726.27087	-306.63132	642.52222	715.52734	-295.65662	535.75409	688.21893	-296.59357	519.24829	577.60480	-381.51971	380.99463	699.32458	-378.67529	333.09882	694.69098	-320.52020	374.88983	700.13873	-326.03708	328.97250	695.02802	-366.62473	93.66682	652.27686	-344.33273	111.68712	570.45184	-428.23392	67.41595	599.36914	-212.59642	45.88455	568.86389	-192.44278	68.40072	617.23132	-238.98166	33.71249	680.63446
837	3.34400	-450.99149	1069.18542	472.48184	-253.11383	1004.02637	439.12500	-366.91092	711.04852	339.44180	-356.15591	648.54034	337.23608	-290.90189	716.42017	344.42667	-290.18338	654.98956	342.33054	-307.37888	546.19916	339.33856	-317.33286	518.29150	454.32928	-401.03470	374.93497	302.72232	-396.59601	330.84909	298.58765	-337.87198	376.86890	288.63947	-343.28476	333.46014	287.06799	-360.77634	96.57716	281.83203	-331.60809	107.89626	365.84732	-416.72324	68.14130	332.60425	-222.25128	43.00264	246.35609	-183.22652	70.37315	303.89371	-194.36855	48.59039	351.76703	-459.58679	1077.57690	580.29181	-284.90439	1021.98126	666.13275	-384.25793	694.37341	710.67590	-367.64597	634.17212	701.06165	-310.85907	704.16064	726.63495	-305.60727	642.35303	715.82007	-294.81931	535.55475	688.48950	-295.87299	519.15656	577.81519	-380.89539	380.91702	699.54755	-378.17084	333.02444	694.89105	-320.00677	374.70370	700.26080	-325.51721	328.80811	695.18121	-366.62329	93.64871	652.29309	-344.30652	111.68380	570.44604	-428.21185	67.37713	599.39996	-212.56995	45.83911	568.84509	-192.43692	68.33292	617.20465	-238.98564	33.68650	680.63391
838	3.34800	-450.31918	1068.86951	473.29327	-252.45564	1004.19763	439.34030	-365.95148	711.12854	339.67206	-355.61188	648.53168	337.62985	-290.29013	716.42291	344.72043	-289.64926	655.00818	342.60770	-306.82913	546.17047	339.66260	-316.49387	518.19702	454.65454	-400.71829	375.02118	303.03720	-396.23447	330.92679	298.90747	-337.53595	376.89322	288.87192	-342.98074	333.50360	287.30130	-360.74118	96.58234	281.91080	-331.56317	107.85197	365.90936	-416.68646	68.13789	332.66876	-222.25130	42.96675	246.35542	-183.17612	70.31719	303.90103	-194.35738	48.51289	351.81021	-458.81989	1077.33228	581.02454	-283.69431	1022.20172	666.44415	-383.22260	694.25476	711.19568	-366.57632	634.14349	701.51825	-309.69730	704.05359	726.99786	-304.53293	642.19720	716.15057	-293.98877	535.36908	688.67010	-295.26596	519.01788	578.05164	-380.20200	380.84860	699.80151	-377.74789	332.94843	695.05243	-319.42465	374.55630	700.37628	-325.02661	328.70734	695.30865	-366.63815	93.62462	652.31494	-344.30588	111.65456	570.44147	-428.19818	67.34190	599.43628	-212.54082	45.76485	568.82190	-192.42540	68.27473	617.18341	-239.00587	33.67123	680.62451
839	3.35200	-449.67685	1068.58618	473.88412	-251.72926	1004.40265	439.53540	-365.42004	711.11560	340.15863	-354.99033	648.53015	338.09875	-289.75488	716.45563	344.97159	-289.08252	654.97333	342.86313	-306.18686	546.18414	340.13281	-315.70773	518.09210	454.85690	-400.36667	375.07617	303.36627	-395.90271	331.05365	299.07925	-337.16232	376.89975	289.08636	-342.72406	333.53986	287.48569	-360.70404	96.59071	281.97543	-331.54150	107.80789	365.98105	-416.68616	68.10902	332.70300	-222.23846	42.90956	246.34309	-183.16010	70.24050	303.90005	-194.36269	48.44588	351.80609	-457.86609	1077.09595	581.69000	-282.45654	1022.43555	666.68695	-382.15073	694.21619	711.69000	-365.54645	634.11627	701.94299	-308.55484	703.95776	727.32092	-303.49652	642.05347	716.45410	-293.20715	535.23889	688.89075	-294.58701	518.94855	578.20978	-379.58789	380.83060	700.01691	-377.28317	332.87070	695.21210	-318.84512	374.42719	700.55103	-324.55203	328.55487	695.39130	-366.63696	93.59887	652.31927	-344.28857	111.62994	570.42609	-428.20715	67.31169	599.46338	-212.56062	45.69685	568.78766	-192.42046	68.23154	617.15448	-239.00185	33.65743	680.62842
840	3.35600	-448.96664	1068.32275	474.54251	-251.05383	1004.62579	439.65726	-365.17661	710.99438	340.91885	-354.35178	648.52686	338.49927	-289.16434	716.46985	345.20450	-288.51602	654.99969	343.08859	-305.51242	546.20367	340.35315	-314.74973	518.09253	455.12607	-399.88052	375.12717	303.65897	-395.62689	331.02097	299.44754	-336.76013	376.92078	289.32559	-342.38464	333.56531	287.67728	-360.65482	96.61786	282.03348	-331.49759	107.81522	366.05789	-416.62024	68.08099	332.71823	-222.23573	42.88438	246.35136	-183.13652	70.17700	303.88843	-194.26428	48.44232	351.79169	-456.94324	1076.84888	582.40594	-281.09412	1022.75116	666.89819	-380.89648	694.33020	712.15613	-365.19507	633.88300	702.44379	-307.30786	703.87421	727.58740	-302.39590	642.02924	716.74341	-292.40009	535.11029	688.99182	-293.97275	518.87164	578.38123	-379.10065	380.80417	700.15393	-376.76746	332.83844	695.35516	-318.25793	374.31946	700.66827	-324.10376	328.41071	695.48383	-366.60983	93.60123	652.33325	-344.28418	111.62761	570.40662	-428.18549	67.28462	599.47339	-212.56621	45.62331	568.74438	-192.41698	68.14613	617.08447	-238.97183	33.68836	680.61005
841	3.36000	-448.35669	1067.97852	475.16956	-250.24268	1004.86700	439.78043	-364.69592	711.00659	341.33044	-353.88437	648.51910	338.84628	-288.63815	716.44965	345.40408	-287.96716	654.97601	343.28329	-305.00031	546.13770	340.42609	-313.90945	518.03406	455.37482	-399.44382	375.22372	303.88269	-395.23834	331.13834	299.74820	-336.36774	376.91974	289.57599	-342.37140	333.40921	288.13419	-360.62115	96.66217	282.08206	-331.42612	107.82208	366.10342	-416.60495	68.09597	332.69144	-222.22813	42.85503	246.34210	-183.10588	70.11505	303.87738	-194.25691	48.38198	351.82672	-455.95389	1076.60730	583.06512	-279.95508	1022.98694	667.12024	-379.86578	694.34088	712.53125	-363.45837	634.06287	702.56360	-306.09143	703.85175	727.87872	-301.16422	641.96545	717.03412	-291.44138	535.02893	689.16693	-293.28506	518.76923	578.50903	-378.64783	380.78726	700.28131	-376.25568	332.78748	695.47443	-317.73846	374.21381	700.74811	-323.62817	328.32086	695.56476	-366.59644	93.59724	652.32721	-344.26260	111.59407	570.39246	-428.16870	67.29810	599.46942	-212.56377	45.55122	568.72498	-192.41718	68.10726	617.02966	-238.96317	33.69163	680.59778
842	3.36400	-447.59384	1067.71326	475.71338	-249.52682	1005.09570	439.85742	-364.12164	710.98438	341.77927	-353.34351	648.48352	339.21436	-288.15854	716.45502	345.57608	-287.40115	655.00507	343.42828	-304.48166	546.11902	340.63898	-313.13116	517.97675	455.54990	-399.00568	375.31778	304.16479	-394.88916	331.19980	300.00098	-336.04153	376.93051	289.74161	-342.04001	333.46390	288.32523	-360.57379	96.69918	282.12451	-331.33627	107.84637	366.17291	-416.55719	68.11385	332.68176	-222.21858	42.83926	246.32951	-183.09149	70.06482	303.85501	-194.19699	48.39971	351.83832	-455.04095	1076.39795	583.59662	-278.60876	1023.29529	667.29315	-378.54276	694.37305	713.00378	-362.42499	634.05646	702.87848	-304.85986	703.81348	728.08923	-300.14987	641.89655	717.19763	-290.69565	534.85138	689.30603	-292.60568	518.72833	578.63690	-378.12677	380.77942	700.40979	-375.78577	332.80469	695.61163	-317.19516	374.12869	700.81818	-323.09802	328.25476	695.62341	-366.57379	93.61198	652.30414	-344.25775	111.59031	570.37500	-428.14597	67.29632	599.44012	-212.55008	45.51793	568.70062	-192.40428	68.09535	616.97455	-238.96498	33.71264	680.58801
